<svg width="1600" height="1600" viewBox="0 0 1600 1600" fill="none" xmlns="http://www.w3.org/2000/svg">
<g clip-path="url(#clip0_46_9)">
<path d="M0.5 199.5V0.5H199.5V199.5H0.5ZM200.5 199.5V0.5H399.5V199.5H200.5ZM400.5 199.5V0.5H599.5V199.5H400.5ZM600.5 199.5V0.5H799.5V199.5H600.5ZM800.5 199.5V0.5H999.5V199.5H800.5ZM1000.5 199.5V0.5H1199.5V199.5H1000.5ZM1200.5 199.5V0.5H1399.5V199.5H1200.5ZM1400.5 199.5V0.5H1599.5V199.5H1400.5ZM1400.5 200.5H1599.5V399.5H1400.5V200.5ZM1400.5 400.5H1599.5V599.5H1400.5V400.5ZM1400.5 600.5H1599.5V799.5H1400.5V600.5ZM1400.5 800.5H1599.5V999.5H1400.5V800.5ZM1399.5 800.5V999.5H1200.5V800.5H1399.5ZM1199.5 800.5V999.5H1000.5V800.5H1199.5ZM999.5 800.5V999.5H800.5V800.5H999.5ZM799.5 800.5V999.5H600.5V800.5H799.5ZM599.5 800.5V999.5H400.5V800.5H599.5ZM399.5 800.5V999.5H200.5V800.5H399.5ZM199.5 800.5V999.5H0.5V800.5H199.5ZM199.5 799.5H0.5V600.5H199.5V799.5ZM199.5 599.5H0.5V400.5H199.5V599.5ZM199.5 399.5H0.5V200.5H199.5V399.5ZM200.5 399.5V200.5H399.5V399.5H200.5ZM400.5 399.5V200.5H599.5V399.5H400.5ZM600.5 399.5V200.5H799.5V399.5H600.5ZM800.5 399.5V200.5H999.5V399.5H800.5ZM1000.5 399.5V200.5H1199.5V399.5H1000.5ZM1200.5 399.5V200.5H1399.5V399.5H1200.5ZM1200.5 400.5H1399.5V599.5H1200.5V400.5ZM1200.5 600.5H1399.5V799.5H1200.5V600.5ZM1199.5 600.5V799.5H1000.5V600.5H1199.5ZM999.5 600.5V799.5H800.5V600.5H999.5ZM799.5 600.5V799.5H600.5V600.5H799.5ZM599.5 600.5V799.5H400.5V600.5H599.5ZM399.5 600.5V799.5H200.5V600.5H399.5ZM399.5 599.5H200.5V400.5H399.5V599.5ZM400.5 599.5V400.5H599.5V599.5H400.5ZM600.5 599.5V400.5H799.5V599.5H600.5ZM800.5 599.5V400.5H999.5V599.5H800.5ZM1000.5 599.5V400.5H1199.5V599.5H1000.5Z" stroke="black"/>
<path d="M0.5 1199.5V1000.5H199.5V1199.5H0.5ZM200.5 1199.5V1000.5H399.5V1199.5H200.5ZM400.5 1199.5V1000.5H599.5V1199.5H400.5ZM600.5 1199.5V1000.5H799.5V1199.5H600.5ZM800.5 1199.5V1000.5H999.5V1199.5H800.5ZM1000.5 1199.5V1000.5H1199.5V1199.5H1000.5ZM1200.5 1199.5V1000.5H1399.5V1199.5H1200.5ZM1400.5 1199.5V1000.5H1599.5V1199.5H1400.5ZM1400.5 1200.5H1599.5V1399.5H1400.5V1200.5ZM1400.5 1400.5H1599.5V1599.5H1400.5V1400.5ZM1400.5 1600.5H1599.5V1799.5H1400.5V1600.5ZM1400.5 1800.5H1599.5V1999.5H1400.5V1800.5ZM1399.5 1800.5V1999.5H1200.5V1800.5H1399.5ZM1199.5 1800.5V1999.5H1000.5V1800.5H1199.5ZM999.5 1800.5V1999.5H800.5V1800.5H999.5ZM799.5 1800.5V1999.5H600.5V1800.5H799.5ZM599.5 1800.5V1999.5H400.5V1800.5H599.5ZM399.5 1800.5V1999.5H200.5V1800.5H399.5ZM199.5 1800.5V1999.5H0.5V1800.5H199.5ZM199.5 1799.5H0.5V1600.5H199.5V1799.5ZM199.5 1599.5H0.5V1400.5H199.5V1599.5ZM199.5 1399.5H0.5V1200.5H199.5V1399.5ZM200.5 1399.5V1200.5H399.5V1399.5H200.5ZM400.5 1399.5V1200.5H599.5V1399.5H400.5ZM600.5 1399.5V1200.5H799.5V1399.5H600.5ZM800.5 1399.5V1200.5H999.5V1399.5H800.5ZM1000.5 1399.5V1200.5H1199.5V1399.5H1000.5ZM1200.5 1399.5V1200.5H1399.5V1399.5H1200.5ZM1200.5 1400.5H1399.5V1599.5H1200.5V1400.5ZM1200.5 1600.5H1399.5V1799.5H1200.5V1600.5ZM1199.5 1600.5V1799.5H1000.5V1600.5H1199.5ZM999.5 1600.5V1799.5H800.5V1600.5H999.5ZM799.5 1600.5V1799.5H600.5V1600.5H799.5ZM599.5 1600.5V1799.5H400.5V1600.5H599.5ZM399.5 1600.5V1799.5H200.5V1600.5H399.5ZM399.5 1599.5H200.5V1400.5H399.5V1599.5ZM400.5 1599.5V1400.5H599.5V1599.5H400.5ZM600.5 1599.5V1400.5H799.5V1599.5H600.5ZM800.5 1599.5V1400.5H999.5V1599.5H800.5ZM1000.5 1599.5V1400.5H1199.5V1599.5H1000.5Z" stroke="black"/>
</g>
<rect x="0.5" y="0.5" width="1599" height="1599" stroke="black" stroke-opacity="0.3"/>
<defs>
<clipPath id="clip0_46_9">
<rect width="1600" height="1600" fill="white"/>
</clipPath>
</defs>
</svg>
